<svg width="550" height="27" viewBox="0 0 550 27" fill="none" xmlns="http://www.w3.org/2000/svg">
<path d="M13.718 12.074H26.555C26.555 13.394 26.5 14.593 26.39 15.671C26.28 16.749 26.06 17.75 25.73 18.674C25.268 19.972 24.641 21.127 23.849 22.139C23.057 23.129 22.122 23.965 21.044 24.647C19.988 25.307 18.822 25.813 17.546 26.165C16.27 26.517 14.928 26.693 13.52 26.693C11.584 26.693 9.813 26.374 8.207 25.736C6.623 25.098 5.259 24.207 4.115 23.063C2.971 21.897 2.08 20.511 1.442 18.905C0.804 17.277 0.485 15.484 0.485 13.526C0.485 11.59 0.793 9.819 1.409 8.213C2.047 6.585 2.938 5.199 4.082 4.055C5.248 2.911 6.645 2.02 8.273 1.382C9.901 0.743999 11.716 0.424999 13.718 0.424999C16.314 0.424999 18.591 0.985999 20.549 2.108C22.507 3.23 24.058 4.968 25.202 7.322L19.064 9.863C18.492 8.499 17.744 7.52 16.82 6.926C15.918 6.332 14.884 6.035 13.718 6.035C12.75 6.035 11.87 6.222 11.078 6.596C10.286 6.948 9.604 7.465 9.032 8.147C8.482 8.807 8.042 9.61 7.712 10.556C7.404 11.502 7.25 12.558 7.25 13.724C7.25 14.78 7.382 15.759 7.646 16.661C7.932 17.563 8.35 18.344 8.9 19.004C9.45 19.664 10.132 20.181 10.946 20.555C11.76 20.907 12.706 21.083 13.784 21.083C14.422 21.083 15.038 21.017 15.632 20.885C16.226 20.731 16.754 20.5 17.216 20.192C17.7 19.862 18.096 19.444 18.404 18.938C18.712 18.432 18.921 17.816 19.031 17.09H13.718V12.074ZM54.2386 16.76L51.3346 8.477L48.4306 16.76H54.2386ZM55.9546 21.677H46.7146L45.2296 26H38.3326L47.8036 1.118H54.8656L64.3366 26H57.4396L55.9546 21.677ZM84.6346 1.118V20.522H92.3896V26H78.1666V1.118H84.6346ZM113.198 1.118V20.522H120.953V26H106.73V1.118H113.198ZM149.451 6.596H141.762V10.754H149.022V16.232H141.762V20.522H149.451V26H135.294V1.118H149.451V6.596ZM171.582 12.239H172.803C174.079 12.239 175.058 11.975 175.74 11.447C176.422 10.919 176.763 10.16 176.763 9.17C176.763 8.18 176.422 7.421 175.74 6.893C175.058 6.365 174.079 6.101 172.803 6.101H171.582V12.239ZM185.805 26H177.753L171.582 16.43V26H165.114V1.118H175.179C176.565 1.118 177.775 1.327 178.809 1.745C179.843 2.141 180.69 2.691 181.35 3.395C182.032 4.099 182.538 4.913 182.868 5.837C183.22 6.761 183.396 7.751 183.396 8.807C183.396 10.699 182.934 12.239 182.01 13.427C181.108 14.593 179.766 15.385 177.984 15.803L185.805 26ZM204.324 14.054L195.249 1.118H202.971L207.591 7.916L212.178 1.118H219.9L210.792 14.054V26H204.324V14.054ZM261.023 13.559C261.023 14.549 261.21 15.462 261.584 16.298C261.958 17.134 262.464 17.86 263.102 18.476C263.74 19.092 264.477 19.576 265.313 19.928C266.171 20.258 267.073 20.423 268.019 20.423C268.965 20.423 269.856 20.258 270.692 19.928C271.55 19.576 272.298 19.092 272.936 18.476C273.596 17.86 274.113 17.134 274.487 16.298C274.861 15.462 275.048 14.549 275.048 13.559C275.048 12.569 274.861 11.656 274.487 10.82C274.113 9.984 273.596 9.258 272.936 8.642C272.298 8.026 271.55 7.553 270.692 7.223C269.856 6.871 268.965 6.695 268.019 6.695C267.073 6.695 266.171 6.871 265.313 7.223C264.477 7.553 263.74 8.026 263.102 8.642C262.464 9.258 261.958 9.984 261.584 10.82C261.21 11.656 261.023 12.569 261.023 13.559ZM254.258 13.559C254.258 11.711 254.599 9.995 255.281 8.411C255.963 6.805 256.909 5.408 258.119 4.22C259.329 3.032 260.77 2.108 262.442 1.448C264.136 0.765999 265.995 0.424999 268.019 0.424999C270.021 0.424999 271.869 0.765999 273.563 1.448C275.257 2.108 276.709 3.032 277.919 4.22C279.151 5.408 280.108 6.805 280.79 8.411C281.472 9.995 281.813 11.711 281.813 13.559C281.813 15.407 281.472 17.134 280.79 18.74C280.108 20.324 279.151 21.71 277.919 22.898C276.709 24.086 275.257 25.021 273.563 25.703C271.869 26.363 270.021 26.693 268.019 26.693C265.995 26.693 264.136 26.363 262.442 25.703C260.77 25.021 259.329 24.086 258.119 22.898C256.909 21.71 255.963 20.324 255.281 18.74C254.599 17.134 254.258 15.407 254.258 13.559ZM296.899 26V1.118H303.367L315.313 16.331V1.118H321.748V26H315.313L303.367 10.787V26H296.899ZM372.292 12.074H385.129C385.129 13.394 385.074 14.593 384.964 15.671C384.854 16.749 384.634 17.75 384.304 18.674C383.842 19.972 383.215 21.127 382.423 22.139C381.631 23.129 380.696 23.965 379.618 24.647C378.562 25.307 377.396 25.813 376.12 26.165C374.844 26.517 373.502 26.693 372.094 26.693C370.158 26.693 368.387 26.374 366.781 25.736C365.197 25.098 363.833 24.207 362.689 23.063C361.545 21.897 360.654 20.511 360.016 18.905C359.378 17.277 359.059 15.484 359.059 13.526C359.059 11.59 359.367 9.819 359.983 8.213C360.621 6.585 361.512 5.199 362.656 4.055C363.822 2.911 365.219 2.02 366.847 1.382C368.475 0.743999 370.29 0.424999 372.292 0.424999C374.888 0.424999 377.165 0.985999 379.123 2.108C381.081 3.23 382.632 4.968 383.776 7.322L377.638 9.863C377.066 8.499 376.318 7.52 375.394 6.926C374.492 6.332 373.458 6.035 372.292 6.035C371.324 6.035 370.444 6.222 369.652 6.596C368.86 6.948 368.178 7.465 367.606 8.147C367.056 8.807 366.616 9.61 366.286 10.556C365.978 11.502 365.824 12.558 365.824 13.724C365.824 14.78 365.956 15.759 366.22 16.661C366.506 17.563 366.924 18.344 367.474 19.004C368.024 19.664 368.706 20.181 369.52 20.555C370.334 20.907 371.28 21.083 372.358 21.083C372.996 21.083 373.612 21.017 374.206 20.885C374.8 20.731 375.328 20.5 375.79 20.192C376.274 19.862 376.67 19.444 376.978 18.938C377.286 18.432 377.495 17.816 377.605 17.09H372.292V12.074ZM406.685 12.239H407.906C409.182 12.239 410.161 11.975 410.843 11.447C411.525 10.919 411.866 10.16 411.866 9.17C411.866 8.18 411.525 7.421 410.843 6.893C410.161 6.365 409.182 6.101 407.906 6.101H406.685V12.239ZM420.908 26H412.856L406.685 16.43V26H400.217V1.118H410.282C411.668 1.118 412.878 1.327 413.912 1.745C414.946 2.141 415.793 2.691 416.453 3.395C417.135 4.099 417.641 4.913 417.971 5.837C418.323 6.761 418.499 7.751 418.499 8.807C418.499 10.699 418.037 12.239 417.113 13.427C416.211 14.593 414.869 15.385 413.087 15.803L420.908 26ZM448.771 6.596H441.082V10.754H448.342V16.232H441.082V20.522H448.771V26H434.614V1.118H448.771V6.596ZM478.591 6.596H470.902V10.754H478.162V16.232H470.902V20.522H478.591V26H464.434V1.118H478.591V6.596ZM494.254 26V1.118H500.722L512.668 16.331V1.118H519.103V26H512.668L500.722 10.787V26H494.254ZM549.479 6.596H541.79V10.754H549.05V16.232H541.79V20.522H549.479V26H535.322V1.118H549.479V6.596Z" fill="white"/>
</svg>
