<svg width="109" height="28" viewBox="0 0 109 28" fill="none" xmlns="http://www.w3.org/2000/svg">
<path d="M13.718 12.574H26.555C26.555 13.894 26.5 15.093 26.39 16.171C26.28 17.249 26.06 18.25 25.73 19.174C25.268 20.472 24.641 21.627 23.849 22.639C23.057 23.629 22.122 24.465 21.044 25.147C19.988 25.807 18.822 26.313 17.546 26.665C16.27 27.017 14.928 27.193 13.52 27.193C11.584 27.193 9.813 26.874 8.207 26.236C6.623 25.598 5.259 24.707 4.115 23.563C2.971 22.397 2.08 21.011 1.442 19.405C0.804 17.777 0.485 15.984 0.485 14.026C0.485 12.09 0.793 10.319 1.409 8.713C2.047 7.085 2.938 5.699 4.082 4.555C5.248 3.411 6.645 2.52 8.273 1.882C9.901 1.244 11.716 0.924999 13.718 0.924999C16.314 0.924999 18.591 1.486 20.549 2.608C22.507 3.73 24.058 5.468 25.202 7.822L19.064 10.363C18.492 8.999 17.744 8.02 16.82 7.426C15.918 6.832 14.884 6.535 13.718 6.535C12.75 6.535 11.87 6.722 11.078 7.096C10.286 7.448 9.604 7.965 9.032 8.647C8.482 9.307 8.042 10.11 7.712 11.056C7.404 12.002 7.25 13.058 7.25 14.224C7.25 15.28 7.382 16.259 7.646 17.161C7.932 18.063 8.35 18.844 8.9 19.504C9.45 20.164 10.132 20.681 10.946 21.055C11.76 21.407 12.706 21.583 13.784 21.583C14.422 21.583 15.038 21.517 15.632 21.385C16.226 21.231 16.754 21 17.216 20.692C17.7 20.362 18.096 19.944 18.404 19.438C18.712 18.932 18.921 18.316 19.031 17.59H13.718V12.574ZM47.2861 14.059C47.2861 15.049 47.4731 15.962 47.8471 16.798C48.2211 17.634 48.7271 18.36 49.3651 18.976C50.0031 19.592 50.7401 20.076 51.5761 20.428C52.4341 20.758 53.3361 20.923 54.2821 20.923C55.2281 20.923 56.1191 20.758 56.9551 20.428C57.8131 20.076 58.5611 19.592 59.1991 18.976C59.8591 18.36 60.3761 17.634 60.7501 16.798C61.1241 15.962 61.3111 15.049 61.3111 14.059C61.3111 13.069 61.1241 12.156 60.7501 11.32C60.3761 10.484 59.8591 9.758 59.1991 9.142C58.5611 8.526 57.8131 8.053 56.9551 7.723C56.1191 7.371 55.2281 7.195 54.2821 7.195C53.3361 7.195 52.4341 7.371 51.5761 7.723C50.7401 8.053 50.0031 8.526 49.3651 9.142C48.7271 9.758 48.2211 10.484 47.8471 11.32C47.4731 12.156 47.2861 13.069 47.2861 14.059ZM40.5211 14.059C40.5211 12.211 40.8621 10.495 41.5441 8.911C42.2261 7.305 43.1721 5.908 44.3821 4.72C45.5921 3.532 47.0331 2.608 48.7051 1.948C50.3991 1.266 52.2581 0.924999 54.2821 0.924999C56.2841 0.924999 58.1321 1.266 59.8261 1.948C61.5201 2.608 62.9721 3.532 64.1821 4.72C65.4141 5.908 66.3711 7.305 67.0531 8.911C67.7351 10.495 68.0761 12.211 68.0761 14.059C68.0761 15.907 67.7351 17.634 67.0531 19.24C66.3711 20.824 65.4141 22.21 64.1821 23.398C62.9721 24.586 61.5201 25.521 59.8261 26.203C58.1321 26.863 56.2841 27.193 54.2821 27.193C52.2581 27.193 50.3991 26.863 48.7051 26.203C47.0331 25.521 45.5921 24.586 44.3821 23.398C43.1721 22.21 42.2261 20.824 41.5441 19.24C40.8621 17.634 40.5211 15.907 40.5211 14.059ZM95.2727 12.574H108.11C108.11 13.894 108.055 15.093 107.945 16.171C107.835 17.249 107.615 18.25 107.285 19.174C106.823 20.472 106.196 21.627 105.404 22.639C104.612 23.629 103.677 24.465 102.599 25.147C101.543 25.807 100.377 26.313 99.1007 26.665C97.8247 27.017 96.4827 27.193 95.0747 27.193C93.1387 27.193 91.3677 26.874 89.7617 26.236C88.1777 25.598 86.8137 24.707 85.6697 23.563C84.5257 22.397 83.6347 21.011 82.9967 19.405C82.3587 17.777 82.0397 15.984 82.0397 14.026C82.0397 12.09 82.3477 10.319 82.9637 8.713C83.6017 7.085 84.4927 5.699 85.6367 4.555C86.8027 3.411 88.1997 2.52 89.8277 1.882C91.4557 1.244 93.2707 0.924999 95.2727 0.924999C97.8687 0.924999 100.146 1.486 102.104 2.608C104.062 3.73 105.613 5.468 106.757 7.822L100.619 10.363C100.047 8.999 99.2987 8.02 98.3747 7.426C97.4727 6.832 96.4387 6.535 95.2727 6.535C94.3047 6.535 93.4247 6.722 92.6327 7.096C91.8407 7.448 91.1587 7.965 90.5867 8.647C90.0367 9.307 89.5967 10.11 89.2667 11.056C88.9587 12.002 88.8047 13.058 88.8047 14.224C88.8047 15.28 88.9367 16.259 89.2007 17.161C89.4867 18.063 89.9047 18.844 90.4547 19.504C91.0047 20.164 91.6867 20.681 92.5007 21.055C93.3147 21.407 94.2607 21.583 95.3387 21.583C95.9767 21.583 96.5927 21.517 97.1867 21.385C97.7807 21.231 98.3087 21 98.7707 20.692C99.2547 20.362 99.6507 19.944 99.9587 19.438C100.267 18.932 100.476 18.316 100.586 17.59H95.2727V12.574Z" fill="white"/>
</svg>
