<svg width="100" height="100" viewBox="0 0 100 100" fill="none" xmlns="http://www.w3.org/2000/svg">
<path fill-rule="evenodd" clip-rule="evenodd" d="M50 90C72.0913 90 89.9999 72.0914 89.9999 50C89.9999 27.9086 72.0913 10 50 10C27.9086 10 10 27.9086 10 50C10 72.0914 27.9086 90 50 90ZM55 35C55 32.2386 52.7614 30 50 30C47.2385 30 45 32.2386 45 35V45H35C32.2386 45 30 47.2386 30 50C30 52.7614 32.2386 55 35 55H45V65C45 67.7614 47.2385 70 50 70C52.7614 70 55 67.7614 55 65V55H65C67.7614 55 70 52.7614 70 50C70 47.2386 67.7614 45 65 45H55V35Z" fill="white"/>
</svg>
